<!-- Generator: Adobe Illustrator 19.1.0, SVG Export Plug-In  -->
<svg version="1.1"
	 xmlns="http://www.w3.org/2000/svg" xmlns:xlink="http://www.w3.org/1999/xlink" xmlns:a="http://ns.adobe.com/AdobeSVGViewerExtensions/3.0/"
	 x="0px" y="0px" width="44.4px" height="44.4px" viewBox="0 0 44.4 44.4" style="enable-background:new 0 0 44.4 44.4;"
	 xml:space="preserve">
<style type="text/css">
	.st0{fill:#E24301;}
	.st1{fill:#FFFFFF;}
</style>
<defs>
</defs>
<g>
	<circle class="st0" cx="22.2" cy="22.2" r="22.2"/>
	<g>
		<path class="st1" d="M22.1,34.4c-6.7,0-12.1-5.4-12.1-12.1c0-6.7,5.4-12.1,12.1-12.1c2.6,0,5.1,0.8,7.1,2.3l-1.4,1.9
			c-1.7-1.2-3.7-1.9-5.7-1.9c-5.4,0-9.7,4.4-9.7,9.7c0,5.4,4.4,9.6,9.7,9.6s9.7-4.4,9.7-9.8h2.4C34.2,29.4,28.8,34.4,22.1,34.4z"/>
		<g>
			<polygon class="st1" points="21.3,16.5 20.9,15.1 27.9,13.5 25.8,6.7 27.2,6.3 29.7,14.6 			"/>
		</g>
	</g>
</g>
</svg>
