<svg xmlns="http://www.w3.org/2000/svg" width="159" height="28" viewBox="0 0 158.8 28.4"><style>.a{fill:#FFF;}</style><path d="M158.4 12.8c-0.4-0.9-0.9-1.7-1.6-2.3 -0.7-0.7-1.6-1.2-2.6-1.5 -1-0.4-2.2-0.5-3.5-0.5 -1.3 0-2.4 0.2-3.5 0.5 -0.3 0.1-0.6 0.3-0.9 0.4 0.3 0.6 0.5 1.3 0.5 2.1 0 1-0.3 1.8-0.9 2.5 -0.6 0.8-1.5 1.2-2.6 1.2 -0.3 0-0.6 0-0.9-0.1 0 0.3 0 0.6 0 0.9 0 1.2 0.2 2.2 0.6 3.1 0.4 0.9 1 1.7 1.7 2.4 0.8 0.7 1.6 1.2 2.6 1.5 1 0.3 2 0.5 3.2 0.5 1.3 0 2.5-0.2 3.6-0.6 1-0.4 1.9-0.9 2.7-1.6 0.7-0.7 1.2-1.5 1.6-2.4 0.4-0.9 0.5-1.9 0.5-3C159 14.7 158.8 13.7 158.4 12.8zM153.6 18.4c-0.1 0.8-0.3 1.4-0.5 1.9 -0.2 0.6-0.6 1.1-1 1.4 -0.4 0.3-0.9 0.5-1.5 0.5 -0.6 0-1.1-0.2-1.6-0.5 -0.4-0.3-0.7-0.8-0.9-1.4 -0.3-0.7-0.4-1.4-0.5-2s-0.1-1.5-0.1-2.6c0-0.8 0-1.5 0.1-2.3 0.1-0.7 0.2-1.4 0.4-1.9 0.2-0.6 0.5-1.1 0.9-1.4 0.4-0.4 0.9-0.6 1.6-0.6 0.6 0 1.1 0.2 1.5 0.5 0.4 0.3 0.7 0.8 0.9 1.4 0.2 0.5 0.3 1.2 0.4 2 0.1 0.9 0.1 1.6 0.1 2.3C153.8 16.7 153.7 17.6 153.6 18.4z" class="a"/><path d="M91.4 10.5c-0.7-0.7-1.6-1.2-2.6-1.5 -1-0.4-2.2-0.5-3.5-0.5 -1.3 0-2.4 0.2-3.5 0.5 -1 0.4-1.9 0.9-2.6 1.5 -0.7 0.7-1.3 1.5-1.6 2.4 -0.4 0.9-0.5 1.9-0.5 3 0 1.2 0.2 2.2 0.6 3.1 0.3 0.6 0.6 1.2 1 1.7 -0.3 0.2-1.3 0.8-1.8 0.9 -0.4 0-0.6-0.1-0.8-0.1 -0.3-0.1-0.5-0.3-0.6-0.6 -0.1-0.2-0.2-0.6-0.2-1 0 0 0-0.9 0-2.1h0v-4.4c0-1.6-0.4-2.8-1.2-3.6 -0.8-0.8-1.9-1.3-3.3-1.3 -0.7 0-1.3 0.1-1.8 0.2C68.4 8.8 68 9 67.6 9.2c-0.3 0.2-0.7 0.5-1.1 0.8 -0.4 0.3-0.7 0.6-1 0.9h-0.1c-0.3-0.8-0.8-1.4-1.5-1.9 -0.7-0.5-1.6-0.7-2.7-0.7 -0.7 0-1.3 0.1-1.8 0.2 -0.6 0.2-1 0.3-1.4 0.6 -0.3 0.2-0.7 0.5-1 0.8 -0.4 0.3-0.7 0.6-1 0.8 0 0 0-1.6 0-1.7 0-0.4-0.2-0.5-0.5-0.4 -0.4 0.1-4.5 0.8-4.6 0.9 -0.1 0-0.2 0.2 0 0.3 0.2 0.2 0.4 0.6 0.4 1 0 0.1 0 12.5 0 12.5h4.7c0 0 0-9.6 0-10.9 0.1-0.1 0.2-0.3 0.4-0.5 0.2-0.2 0.4-0.4 0.6-0.6 0.3-0.2 0.6-0.3 0.9-0.5 0.3-0.1 0.7-0.2 1.1-0.2 0.6 0 1.1 0.2 1.5 0.7 0.3 0.5 0.5 1.2 0.5 2.2v9.7h4.7V12.5c0.1-0.1 0.2-0.3 0.4-0.5 0.2-0.2 0.4-0.4 0.6-0.6 0.3-0.2 0.6-0.3 0.9-0.5 0.3-0.1 0.7-0.2 1.1-0.2 0.6 0 1.1 0.2 1.5 0.7 0.3 0.5 0.5 1.2 0.5 2.2 0 0 0 6.9 0 7 0 1.3 0.8 1.8 1.3 2.2 0.6 0.3 1.4 0.5 2.6 0.5 0.6 0 1.2-0.1 1.8-0.2 1.4-0.3 2.9-1.8 2.9-1.8l-0.2-0.3c0.1 0.1 0.2 0.2 0.3 0.3 0.7 0.7 1.6 1.2 2.6 1.5 1 0.3 2 0.5 3.2 0.5 1.3 0 2.5-0.2 3.6-0.6 1-0.4 1.9-0.9 2.7-1.6 0.7-0.7 1.2-1.5 1.6-2.4 0.4-0.9 0.5-1.9 0.5-3 0-1.1-0.2-2-0.6-3S92.1 11.1 91.4 10.5zM88.2 18.4c-0.1 0.8-0.3 1.4-0.5 1.9 -0.2 0.6-0.6 1.1-1 1.4 -0.4 0.3-0.9 0.5-1.5 0.5 -0.6 0-1.1-0.2-1.6-0.5 -0.4-0.3-0.7-0.8-0.9-1.4 -0.3-0.7-0.4-1.4-0.5-2 -0.1-0.7-0.1-1.5-0.1-2.6 0-0.8 0-1.5 0.1-2.3 0.1-0.7 0.2-1.4 0.4-1.9 0.2-0.6 0.5-1.1 0.9-1.4 0.4-0.4 0.9-0.6 1.6-0.6 0.6 0 1.1 0.2 1.5 0.5 0.4 0.3 0.7 0.8 0.9 1.4 0.2 0.5 0.3 1.2 0.4 2 0.1 0.9 0.1 1.6 0.1 2.3C88.4 16.7 88.3 17.6 88.2 18.4z" class="a"/><path d="M145.2 13.3c0.4-0.5 0.7-1.2 0.7-1.9 0-0.9-0.3-1.6-0.8-2.1 -0.5-0.5-1.2-0.8-2.1-0.8 -0.8 0-1.6 0.2-2.3 0.6 -0.5 0.3-0.9 0.6-1.3 1 -0.3 0.3-0.6 0.5-0.9 0.7 0 0 0-1.7 0-1.7 0-0.4-0.2-0.5-0.5-0.4 -0.4 0.1-4.5 0.8-4.6 0.9 -0.1 0-0.2 0.2 0 0.3 0.2 0.2 0.4 0.6 0.4 1 0 0 0 2.5 0 5.3 -0.3 0.5-1.3 2.1-1.6 2.6 -0.4 0.6-1.1 1.4-1.8 1.9 -0.7 0.5-1.5 0.7-2.4 0.7 -1.6 0-2.8-0.5-3.6-1.5s-1.1-2.5-1.1-4.4c0 0 6.5 0 8 0 1.9 0 1.6-1.8 1.2-3.2 -0.2-0.7-0.6-1.4-1.2-1.9 -0.6-0.6-1.3-1-2.1-1.3 -0.9-0.3-1.9-0.5-3.3-0.5 -1.2 0-2.3 0.2-3.3 0.6 -1 0.4-1.8 1-2.4 1.6 -0.7 0.7-1.2 1.5-1.5 2.4 -0.4 0.9-0.5 1.8-0.5 2.8 0 1.1 0.2 2.1 0.5 3 0.3 0.8 0.7 1.5 1.2 2.1 -0.4 0.3-1.1 0.6-1.6 0.7 -0.4 0-0.6-0.1-0.8-0.1 -0.3-0.1-0.5-0.3-0.6-0.6 -0.1-0.2-0.3-0.6-0.3-1 0 0 0-12.3 0-12.3 0.2 0 0.7 0 2.2 0 0-0.8 0-0.9 0-2.1 -1.9 0-2.2 0-2.3 0V0h-4.6c0 0 0.5 6-2.6 6 0 1.2 0 1.6 0 1.6h2.6v5.6c0 0 0 6.3 0 7.5 0 0.1 0 0.3 0 0.4 -0.4 0.2-0.9 0.4-1.2 0.5 -0.4 0-0.6-0.1-0.8-0.1 -0.3-0.1-0.5-0.3-0.6-0.6 -0.1-0.2-0.2-0.6-0.2-1 0-0.1 0-6.6 0-6.6 0-1.5-0.4-2.6-1.2-3.5 -0.5-0.5-1.1-0.9-1.9-1.1v0c-0.3-0.1-0.6-0.1-1-0.1 -0.1 0-0.2 0-0.2 0 -0.1 0-0.2 0-0.2 0 0 0 0 0 0 0 0 0-0.1 0-0.1 0 -0.6 0-1.3 0.1-1.8 0.2 -0.2 0.1-0.5 0.1-0.7 0.2v0c-0.2 0.1-0.4 0.2-0.5 0.3 -0.3 0.2-0.7 0.5-1 0.8 -0.4 0.3-0.7 0.6-1 0.8 0 0 0-1.6 0-1.7 0-0.4-0.2-0.5-0.5-0.4 -0.4 0.1-4.5 0.8-4.6 0.9 -0.1 0-0.2 0.2 0 0.3 0.2 0.2 0.4 0.6 0.4 1 0 0.1 0 12.5 0 12.5h4.7c0 0 0-9.6 0-10.9 0.1-0.1 0.2-0.3 0.4-0.5 0.2-0.2 0.4-0.4 0.6-0.6 0.3-0.2 0.6-0.3 0.9-0.5 0.3-0.1 0.7-0.2 1-0.2 0.7 0 1.2 0.3 1.5 0.7 0.4 0.5 0.6 1.2 0.6 2.2 0 0 0 6.9 0 7 0 1.3 0.8 1.8 1.3 2.2 0.6 0.3 1.4 0.5 2.6 0.5 0.6 0 1.2-0.1 1.8-0.2 0.8-0.2 1.6-0.7 2.1-1.1 0.3 0.4 0.7 0.6 1 0.8 0.5 0.3 1.4 0.5 2.6 0.5 0.6 0 1.2-0.1 1.8-0.2 1.1-0.2 2.3-1.3 2.7-1.6 0.6 0.5 1.3 1 2.2 1.3 1 0.4 2.2 0.6 3.6 0.6 0.8 0 1.6-0.1 2.2-0.3 0.7-0.2 1.3-0.5 1.9-0.8 0.6-0.3 1.1-0.8 1.6-1.2 0.5-0.5 1-1.3 1.2-1.5 0.1-0.1 0.3-0.6 0.6-1 0 2.6 0 4.9 0 4.9h4.7c0 0 0-9.6 0-10.9 0.1-0.1 0.2-0.3 0.4-0.5 0.1-0.2 0.3-0.4 0.6-0.6 0 0 0.1-0.1 0.1-0.1 0.1-0.1 0.2-0.1 0.3-0.2v0c0.5-0.3 0.9-0.4 1.3-0.4 0 0.2-0.1 0.3-0.1 0.5 0 0.2-0.1 0.4-0.1 0.8 0 0.7 0.2 1.2 0.7 1.5 0.5 0.4 1.1 0.5 1.8 0.5C144.1 14.1 144.7 13.8 145.2 13.3zM123.9 10.6c0.4-0.7 1-1.1 1.8-1.1 0.4 0 0.8 0.1 1.1 0.3 0.3 0.2 0.5 0.6 0.7 1 0.1 0.4 0.2 0.9 0.3 1.5 0.1 0.6 0.1 1.2 0.1 1.8l-4.6 0.1C123.2 12.5 123.4 11.4 123.9 10.6z" class="a"/><path d="M47.4 21.5c-0.4 0-0.6-0.1-0.8-0.1 -0.3-0.1-0.5-0.3-0.6-0.6 -0.1-0.2-0.2-0.6-0.2-1 0-0.1 0-10.7 0-10.7 0-0.4-0.2-0.5-0.5-0.4 -0.4 0.1-4.5 0.8-4.6 0.9 -0.1 0-0.2 0.2 0 0.3 0.2 0.2 0.4 0.6 0.4 1 0 0.1 0 9.7 0 9.8 0 0.1 0 0.1 0 0.2 -0.4 0.3-1.2 0.7-1.6 0.7 -0.4 0-0.6-0.1-0.8-0.1 -0.3-0.1-0.5-0.3-0.6-0.6 -0.1-0.2-0.3-0.6-0.3-1 0 0 0-13.4 0-13.4s1-1.1 2.4-1.9c0 0.1 0 0.2 0 0.3 0 0.7 0.3 1.3 0.8 1.8 0.6 0.5 1.2 0.8 2 0.8 0.8 0 1.4-0.3 2-0.8 0.6-0.5 0.8-1.1 0.8-1.8 0-0.7-0.3-1.3-0.8-1.8 -0.4-0.4-0.9-0.6-1.5-0.7 0-0.1 0-0.2 0-0.3 -2.5 0-5.6 2.3-5.6 2.3V0H33.3c0 0 0.5 6-2.6 6 0 1.2 0 1.6 0 1.6h2.6v5.6c0 0 0 6.3 0 7.5 0 0.1 0 0.2 0 0.3 -0.4 0.2-1 0.5-1.4 0.6 -0.4 0-0.6-0.1-0.8-0.1 -0.3-0.1-0.5-0.3-0.6-0.6 -0.1-0.2-0.2-0.6-0.2-1 0-0.5 0-5.6 0-6.7 0-1 0-1.8-0.4-2.5 -0.3-0.6-0.8-1.1-1.4-1.4 -0.6-0.3-1.3-0.6-2.1-0.7 -0.8-0.1-1.6-0.2-2.5-0.2 -0.7 0-1.4 0.1-2.2 0.2 -0.8 0.2-1.5 0.4-2.1 0.7 -0.6 0.3-1.1 0.6-1.5 1 -0.4 0.4-0.6 0.9-0.6 1.4 0 0.6 0.2 1.1 0.6 1.5 0.4 0.4 1 0.6 1.8 0.6 0.6 0 1-0.1 1.2-0.2 0.3-0.1 0.5-0.3 0.7-0.4 0.2-0.1 0.3-0.3 0.4-0.6 0.1-0.2 0.1-0.4 0.1-0.6 0-0.4-0.1-0.7-0.2-1.1 -0.1-0.4-0.2-0.7-0.2-0.9 0.2-0.1 0.4-0.2 0.7-0.4 0.3-0.1 0.6-0.2 1-0.2 0.5 0 0.8 0.1 1.1 0.3 0.3 0.2 0.5 0.5 0.6 0.8 0.1 0.3 0.2 0.6 0.2 1 0 0.4 0.1 0.7 0.1 0.9v1.4c-0.6 0.3-1.4 0.6-2.6 0.9 -1.2 0.3-2.2 0.7-3.1 1 -0.4 0.2-0.9 0.4-1.2 0.6 -0.4 0.2-0.7 0.5-1 0.8 -0.3 0.3-0.6 0.7-0.7 1.1 -0.2 0.4-0.3 1-0.3 1.6 0 1.1 0.4 1.9 1.2 2.6 0.8 0.6 1.7 1 2.8 1 0.7 0 1.3-0.1 1.7-0.2 0.4-0.1 0.8-0.3 1.3-0.5 0.3-0.2 0.7-0.4 1-0.6 0.3-0.2 0.6-0.5 0.9-0.8h0.1c0.2 0.6 0.6 1.1 1.1 1.5 0.6 0.3 1.4 0.5 2.6 0.5 0.6 0 1.2-0.1 1.8-0.2 0.8-0.2 1.7-0.8 2.3-1.2 0.3 0.4 0.8 0.7 1.1 0.9 0.5 0.3 1.4 0.5 2.6 0.5 0.6 0 1.2-0.1 1.8-0.2 0.9-0.2 1.8-0.9 2.4-1.3 0.3 0.5 0.7 0.8 1.1 1 0.6 0.3 1.4 0.5 2.6 0.5 0.6 0 1.2-0.1 1.8-0.2 1.4-0.3 2.9-1.8 2.9-1.8l-0.4-0.7C49.3 20.6 48 21.4 47.4 21.5zM25.7 20c-0.3 0.3-0.6 0.6-0.9 0.8 -0.3 0.2-0.8 0.3-1.3 0.3 -0.5 0-0.9-0.2-1.2-0.5 -0.3-0.3-0.5-0.9-0.5-1.6 0-0.6 0.1-1.1 0.3-1.5 0.2-0.4 0.5-0.8 0.8-1 0.3-0.3 0.8-0.5 1.3-0.7 0.5-0.2 1.1-0.4 1.6-0.6L25.7 20z" class="a"/><path d="M9.7 8.4c-0.7 0-1.5 0.2-2.3 0.5 -0.8 0.4-1.6 0.9-2.2 1.5 0-0.9 0-1.5 0-1.6 0-0.4-0.2-0.5-0.5-0.4C4.3 8.4 0.2 9.2 0.1 9.2 0 9.2-0.1 9.4 0.1 9.6c0.2 0.2 0.4 0.6 0.4 1 0 0.4 0 13.4 0 17.8H5.2c0-2.5 0-6.1 0-6.1 0.4 0.3 1 0.6 1.5 0.8 0.6 0.2 1.3 0.3 2.2 0.3 2 0 3.7-0.7 5.1-2.1 1.3-1.4 2-3.2 2-5.2 0-2.3-0.6-4.1-1.7-5.5C13.2 9.1 11.6 8.4 9.7 8.4zM10.1 20.5c-0.6 1-1.3 1.5-2.2 1.5 -0.4 0-0.7-0.1-1-0.2 -0.3-0.1-0.6-0.3-0.8-0.6 -0.2-0.2-0.3-0.4-0.5-0.7 -0.2-0.3-0.3-0.5-0.3-0.7v-8.1c0.3-0.3 0.6-0.6 1-0.8 0.4-0.2 0.9-0.3 1.5-0.3 0.6 0 1.1 0.2 1.5 0.5 0.4 0.3 0.8 0.7 1 1.2 0.3 0.5 0.5 1.1 0.6 1.7 0.1 0.7 0.2 1.3 0.2 2C10.9 18 10.6 19.5 10.1 20.5z" class="a"/></svg>