<svg xmlns="http://www.w3.org/2000/svg" width="578.6" height="111" viewbox="0 0 578.6 111">
    <path fill="#2f2f2f" d="M158.2 1.6c-13.3 0-19.9 16.8-21.9 16.8v5.1c2 0 8-10.2 11.9-10.2 0 4.8 4.7 9.3 10.1 9.3 5.9 0 10.6-4.6 10.6-10.5-.1-5.9-4.9-10.5-10.7-10.5zM111.3 70.1V44.2c0-3.2.1-17.5-22.2-17.5 0 0-22.8-1.3-22.8 12.8 0 6.8 5 8.1 8.4 8.1 2.7 0 7.9-1.6 7.9-8.1 0-4.4-2.6-6.2-2.6-6.2s1.8-3.3 6.5-3.3 6.8 2.7 6.8 7.8V52s-29.1-2.4-29.1 17c0 8 6.1 14.5 14.8 14.5 10.8 0 16.1-6.9 16.1-6.9s2.6 6.9 12 6.9c8.1 0 15.2-6.8 15.2-6.8l-1.3-1.9s-9.7 6-9.7-4.7zm-18 4.2S81.8 80.4 81.8 67c0-12.6 11.5-11.6 11.5-11.6v18.9z"/>
    <path fill="#2f2f2f" d="M112.3 19.7c5 0 17-12.8 17-19.7h8v66.5c0 9 9.9 9.9 13.7 6.1l1.4 2.4s-8.5 8.4-18.8 8.4-14.3-7.7-14.3-16.7V22.9h-7v-3.2zM434 71.6c-3.8 3.8-13.9 5.1-13.9-5 0-4.9.2-20.6 0-34.6h10.8l.9-5.8-.7-.6-11 .5c-.1-9.2 0-16.1 0-16.1h-8.6c0 7-12.1 19.4-17.1 19.4V33h7v33.8c0 9 4.1 16.7 14.4 16.7s19.8-9.9 19.8-9.9l-1.6-2zM304.7 25.8c-16.1 0-28.1 11.3-28.1 29.1 0 19 12.1 29.1 28.1 29.1s28.1-10.3 28.1-29.1c.1-19.3-12-29.1-28.1-29.1zm0 54.7c-6.8 0-11-11.6-11-25.2s4-25.2 11-25.2c7.5 0 11 11.6 11 25.2s-2.8 25.2-11 25.2z"/>
    <path fill="#2f2f2f" d="M479.5 68.4s-5.1 5.5-15.2 5.5c-15.7 0-17.6-19.9-17.6-19.9h33.7c0-24-14.2-27.9-23.4-27.9-15.4 0-28.2 11.3-28.2 27.7 0 16.3 9.3 30.3 26.4 30.3 17.1 0 25.6-14.2 25.6-14.2l-1.3-1.5zm-23-38.6c11.2 0 9.7 19.6 9.7 19.6l-19.3 1.3s-1.6-20.9 9.6-20.9zM180.2 73.1c-3.8 3.8-12.9 2.4-12.9-6.6v-39l-1.8-.5-20.2 6.6v1.7c4 0 5 3.8 5 6.5v25c0 9 3.1 16.7 13.4 16.7s17.5-8.9 17.5-8.9l-1-1.5zM41.3 26.8C30.4 26.8 23.5 37 23.5 37h-.2V26h-.5L0 32.9l.6 1.3c2.3 0 4.7 3.4 4.7 7.6V111h18V81h.4s3.6 2.3 10.6 2.3c21.8 0 27.2-16.3 27.2-30.8 0-14.6-9.3-25.7-20.2-25.7zm-8.8 53.3c-6.7 0-9.2-7.7-9.2-12.1V40.5s3.3-2.8 7.8-2.8c3.7 0 12.1 3.6 12.1 18.7s-4 23.7-10.7 23.7zM282.4 73.1c-3.8 3.8-13.4 2.4-13.4-6.6V42.8c-.1-2.1 2.3-16-11.5-16s-20.9 10.5-20.9 10.5-1-10.5-11.8-10.5c-13.8 0-20.6 10.4-20.6 10.4V26.1l-.3-.5-19.7 6.6v1.7c2 0 4.4 5.4 4.4 8.1 0 1.9-.2 35.1-.2 41.1h15.7V41s3.1-2.7 8.5-2.7c6.6 0 7.5 4.5 7.5 8v36.8h16.8V39.7s2.9-1.8 8.4-1.8c6.2 0 6.8 5.5 6.8 8.4v20.6c0 9 3 16.7 13.3 16.7s17.6-8.9 17.6-8.9l-.6-1.6zM402.8 73.1c-3.8 3.8-13 2.4-13-6.6V42.8c-.1-2.1.4-16-13.4-16s-20.1 10.4-20.1 10.4V26.1l-.5-.5-20.5 6.6v1.7c2 0 4.8 5.1 4.8 7.8 0 2.2 0 35.3.1 41.3h16.1V40.9s3.1-2.7 8.5-2.7c6.6 0 7.5 4.5 7.5 8v20.6c0 9 2.5 16.7 12.8 16.7s18.6-8.9 18.6-8.9l-.9-1.5zM550.5 25.8c-6 0-11.5 1.6-16 4.5.7 1.6 1.1 3.4 1.1 5.2 0 7-5.7 12.7-12.7 12.9-.4 2-.6 4.2-.6 6.5 0 19 12.1 29.1 28.1 29.1s28.1-10.3 28.1-29.1c.1-19.3-11.9-29.1-28-29.1zm0 54.7c-6.8 0-11-11.6-11-25.2s4-25.2 11-25.2c7.5 0 11 11.6 11 25.2s-2.8 25.2-11 25.2z"/>
    <path fill="#2f2f2f" d="M522.8 26.1h-.2-.2c-7.8 0-17.2 11.7-17.2 11.7V26.1l-1-.5-22 6.6v1.7c2 0 4.8 5.1 4.8 7.8 0 2.4.1 33.3.1 41.3h18.1V41.1c2-2.1 7-4.3 8.4-4.3 0 4.3 4.2 8.3 9 8.3 5.2 0 9.5-4.2 9.5-9.5.1-5.3-4.1-9.5-9.3-9.5z"/>
</svg>