<?xml version="1.0" encoding="UTF-8" standalone="no"?>
<svg viewBox="0 0 390 75" version="1.1" xmlns="http://www.w3.org/2000/svg" xmlns:xlink="http://www.w3.org/1999/xlink">

    <defs>
        <style>
            <![CDATA[
            .small { display: none; }
            .medium { display: none; }
            .big { display: none; }
            g { fill: #2f2f2f; }

            @media screen and (max-width: 200px) {
                .small { display: block; }
            }
            @media screen and (min-width: 201px) and (max-width: 400px) {
                .medium { display: block; }
            }
            @media screen and (min-width: 401px) {
                .big { display: block; }
            ]]>
        </style>
    </defs>

    <g class="small">
        <path d="M37 0C16.6 0 0 16.6 0 37s16.6 37 37 37 37-16.6 37-37S57.4 0 37 0zm2.4 47.4c-3.4 0-5.5-.2-6.5-.3V66h-12V18.4c0-2.8-2.1-4.8-3.7-4.8l-.9-.6 15.3-4h1.3v6c1.6-2 5.6-6.3 11.2-6.3 7.3 0 13.6 7.8 13.6 17.6s-3.6 21.1-18.3 21.1z"/>
        <path d="M37.7 15.7c-3 0-4.8 1.9-4.8 1.9v18.5c0 2.9 1.2 8.1 5.7 8.1s7.2-5.8 7.2-15.9c0-10.1-5.6-12.6-8.1-12.6z"/>
    </g>

    <g class="medium">
        <path d="M112.1 45V18.8l-.8-.3-13.2 4.4V24c2 0 2 2.5 2 4.4v16.8c0 1.4.9 2.8 1.2 4.1-2.7 2.3-8.2 1.6-8.2-4.3V15.6c1-1.5 4.6-6.4 6.8-6.4 0 3.2 3.1 6.2 6.7 6.2 3.9 0 7-3.1 7-7.1 0-3.9-3-7.1-7-7.1-7.6 0-11.5 8.2-13.5 10.6V.9h-6c0 4-9 12.5-12 12.5v1.5h5v30.2c0 2 0 3.9.6 5.5-1.2.6-6.6 3-6.6-3.3V29.9c0-2.1.5-11.8-14.5-11.8 0 0-15.1-.9-15.1 8.6 0 4.6 3.5 5.5 5.7 5.5 1.8 0 5.4-1.1 5.4-5.5 0-2.9-1.7-4.2-1.7-4.2s1.3-2.2 4.5-2.2 4.7 1.8 4.7 5.2V35s-19.7-1.6-19.7 11.4c0 5.4 4.1 9.7 9.9 9.7 7.3 0 10.8-4.6 10.8-4.6s1.7 4.6 8 4.6c4.5 0 8.5-3.1 9.8-4.2 1.5 2.5 4.1 4.2 8 4.2 5.7 0 10.6-3.8 12.2-5.2 1.2 3.1 3.7 5.2 8.1 5.2 6.9 0 11.7-6 11.7-6l-.8-1c-2.6 2.8-9 1.9-9-4.1zm-49 5.2s-7.7 4.1-7.7-4.9c0-8.5 7.7-7.8 7.7-7.8v12.7zM27.8 18.2c-7.3 0-11.9 6.8-11.9 6.8h.2v-7h-.7L.1 22.5l.6.8c1.6 0 3.4 2.2 3.4 5v46.6h12v-19s2.4.9 7.1.9c14.7 0 18.3-11.3 18.3-21.1-.1-9.7-6.3-17.5-13.7-17.5zm-5.7 36c-4.5 0-6-5.2-6-8.1V27.6s2-1.9 5.1-1.9c2.5 0 8.1 2.5 8.1 12.6s-2.7 15.9-7.2 15.9z"/>
    </g>

    <g class="big">
        <path d="M112.1 45V18.8l-.8-.3-13.2 4.4V24c2 0 2 2.5 2 4.4v16.8c0 1.4.9 2.8 1.2 4.1-2.7 2.3-8.2 1.6-8.2-4.3V15.6c1-1.5 4.6-6.4 6.8-6.4 0 3.2 3.1 6.2 6.7 6.2 3.9 0 7-3.1 7-7.1 0-3.9-3-7.1-7-7.1-7.6 0-11.5 8.2-13.5 10.6V.9h-6c0 4-9 12.5-12 12.5v1.5h5v30.2c0 2 0 3.9.6 5.5-1.2.6-6.6 3-6.6-3.3V29.9c0-2.1.5-11.8-14.5-11.8 0 0-15.1-.9-15.1 8.6 0 4.6 3.5 5.5 5.7 5.5 1.8 0 5.4-1.1 5.4-5.5 0-2.9-1.7-4.2-1.7-4.2s1.3-2.2 4.5-2.2 4.7 1.8 4.7 5.2V35s-19.7-1.6-19.7 11.4c0 5.4 4.1 9.7 9.9 9.7 7.3 0 10.8-4.6 10.8-4.6s1.7 4.6 8 4.6c4.5 0 8.5-3.1 9.8-4.2 1.5 2.5 4.1 4.2 8 4.2 5.7 0 10.6-3.8 12.2-5.2 1.2 3.1 3.7 5.2 8.1 5.2 6.9 0 11.7-6 11.7-6l-.8-1c-2.6 2.8-9 1.9-9-4.1zm-49 5.2s-7.7 4.1-7.7-4.9c0-8.5 7.7-7.8 7.7-7.8v12.7zM27.8 18.2c-7.3 0-11.9 6.8-11.9 6.8h.2v-7h-.7L.1 22.5l.6.8c1.6 0 3.4 2.2 3.4 5v46.6h12v-19s2.4.9 7.1.9c14.7 0 18.3-11.3 18.3-21.1-.1-9.7-6.3-17.5-13.7-17.5zm-5.7 36c-4.5 0-6-5.2-6-8.1V27.6s2-1.9 5.1-1.9c2.5 0 8.1 2.5 8.1 12.6s-2.7 15.9-7.2 15.9zM205 17.6c-10.8 0-18.9 7.6-18.9 19.6 0 5.2 1.3 9.3 3.6 12.5-2.7 2.2-8.7 1.1-8.7-4.7V29.1c-.1-1.4 1.5-10.8-7.7-10.8-9.3 0-14.1 7-14.1 7s-.4-7-7.6-7c-9.3 0-13.6 7-13.6 7v-7.5l-.9-.3-14.1 4.4V23c2 0 3.5 4.1 3.5 5.9 0 1.2.3 23.1.4 28.1h11.2V27.7s1.7-1.8 5.4-1.8c4.4 0 4.6 3 4.6 5.4V57h11.5V27.3s2.1-1.5 5.8-1.5c4.2 0 4.7 3.5 4.7 5.4v13.9c0 6 1.9 11.2 8.8 11.2 6 0 10.5-4.5 11.5-5.7 3.4 4 8.6 6.1 14.6 6.1 10.8 0 18.9-7 18.9-19.6 0-12.9-8.1-19.5-18.9-19.5zm0 36.8c-4.6 0-7.4-7.8-7.4-17s2.7-17 7.4-17c5.1 0 7.4 7.8 7.4 17s-1.9 17-7.4 17zM312.3 49.7c-10.6 0-11.9-13.7-11.9-13.7h22.7c0-17-9.6-18.5-15.7-18.5-10.3 0-18.9 7.8-18.9 18.8 0 4.6 1.1 8.9 3.2 12.4-2.7 2.3-9.1 3-9.1-3.5 0-3.3.1-14.2 0-23.2h7.3l.6-4-.4-.4-7.4.3c-.1-6.2 0-10.9 0-10.9h-5.8c0 5-7.7 13-11.7 13v3h5v22.2c0 1.6.1 3.2.6 4.6-2.7 2-8.3.9-8.3-4.8V29.1c-.1-1.4.4-10.8-8.8-10.8-9.3 0-13.4 7-13.4 7v-7.5l-.8-.3-14.2 4.4V23c2 0 3.5 3.9 3.5 5.7 0 1.5.3 23.2.3 28.2h11.2V27.6s2.2-1.8 5.9-1.8c4.4 0 5.1 3 5.1 5.4v13.9c0 6 1.4 11.2 8.3 11.2 5.5 0 10-3.7 11.6-5.3 1.4 3.1 4.1 5.3 8.6 5.3 6 0 11.6-4.9 13-6.3 3 4.1 7.6 6.7 13.6 6.7 11.5 0 17.2-9.5 17.2-9.5l-.9-1.1c-.1.1-3.5 3.6-10.4 3.6zm-5.2-29.4c7.6 0 6.5 13.2 6.5 13.2l-13 .9s-1.1-14.1 6.5-14.1zM370.3 17.6c-4.1 0-7.7 1.1-10.8 3.1.5 1.1.7 2.3.7 3.5 0 4.7-3.8 8.6-8.5 8.6-.3 1.4-.4 2.8-.4 4.3 0 12.8 8.1 19.6 18.9 19.6 10.8 0 18.9-7 18.9-19.6.2-12.9-8-19.5-18.8-19.5zm0 36.8c-4.6 0-7.4-7.8-7.4-17s2.7-17 7.4-17c5.1 0 7.4 7.8 7.4 17s-1.9 17-7.4 17z"/>
        <path d="M358 24.2c0-3.5-2.8-6.4-6.3-6.4h-.1-.5c-5.2 0-12 7.9-12 7.9v-7.9l-.5-.3-14.5 4.4V23c2 0 3.4 3.9 3.4 5.7 0 1.6.2 22.2.3 28.2h11.3V27.8c1-1.4 5.1-2.9 6.1-2.9 0 2.9 3 5.6 6.3 5.6 3.4 0 6.5-2.8 6.5-6.3z"/>
    </g>

</svg>