<svg version="1.0" xmlns="http://www.w3.org/2000/svg" width="168" height="300">
  <g fill="#2F2F2F">
    <path d="M83.6 181.5c-16.3 0-20.2 9.1-20.2 13.1 0 4.9 3 8.5 3 8.5h29.7c4.7 0 13-2.8 13-10 0-7.4-9.3-11.6-25.5-11.6z"/>
    <path d="M0 0v300l84-30 84 30V0H0zm49 107h-5.3c0-5-13.7-18.7-19.7-18.7V79h17.2c-3.8-4-17.1-9.6-17.1-21.9 0-6.3 5-11.6 11.4-11.6 6.3 0 11.4 5.3 11.4 11.7 0 5.8-4.9 10.6-10 10.6 0 3.6 7.9 10.3 10.3 11.3h47.2c9.4 0 10.6-10.2 6.9-14.5-2.1.4-4.3.4-6.6.4h-27c-2.9 0-7 3-7 5h-1.9l-7.1-21.5.5-1.5h42.1c9.7 0 11.2-9.8 7.1-13.9l1.6-1s9.6 7.8 9.6 19c0 7.1-3.4 11.1-8.3 13 2.2 2.5 8.3 10.4 8.3 19.6 0 6.3-2.6 10.5-6.7 12.9 1.7 2 6.7 8.5 6.7 15.7 0 10.1-7.4 12.9-7.4 12.9s7.4 5.7 7.4 17.4c0 9.4-7 15.9-15.7 15.9-21 0-18.4-31.6-18.4-31.6H63.2c-5.5 0-8.4 2.4-8.4 7.5s3.6 7.1 3.6 7.1 2-2.8 6.7-2.8c7 0 8.8 5.7 8.8 8.6 0 3.6-1.4 9.1-8.8 9.1-15.3 0-13.9-25.1-13.9-25.1 0-24.1 15.5-24.4 18.9-24.4h28c10.1 0 6.5-7.7 5.4-9.8-2.7 1.1-5.7 1.8-9 1.8C85 99 49 99 49 99v8zm95 116H67.6c-4.5 0-8.1 2.3-8.1 4.8l-1.2.2-7.3-24.5v-.5h11.4c-2.4-2-10.7-9-10.7-19.1 0-11.8 11.9-21.9 27.6-21.9 15.8 0 33.2 5.8 33.2 29.4 0 6.5-1.8 9.6-2.3 11.6h33.7v20z"/>
    <path d="M82.3 127s-1.1 12.4 12.5 12.4c14.5 0 7.9-12.4 7.9-12.4H82.3z"/>
  </g>
</svg>
