<svg xmlns="http://www.w3.org/2000/svg" width="732" height="133"><g fill="#FA7057"><path d="M725.986 60.115c-1.701-4.188-4.166-7.783-7.393-10.793-3.313-3.055-7.294-5.417-11.935-7.097-4.646-1.679-10.021-2.519-16.126-2.519-5.842 0-11.129.84-15.857 2.519a38.702 38.702 0 0 0-4.216 1.81c1.599 2.755 2.425 5.938 2.425 9.536 0 4.399-1.388 8.334-4.125 11.688-2.933 3.58-6.983 5.474-11.726 5.474-1.48 0-2.865-.19-4.208-.465a48.56 48.56 0 0 0-.169 3.908c0 5.32.961 10.13 2.881 14.425 1.917 4.295 4.537 7.9 7.849 10.824 3.444 3.051 7.4 5.342 11.87 6.867 4.471 1.526 9.362 2.289 14.683 2.289 6.149 0 11.611-.875 16.39-2.621 4.771-1.74 8.884-4.25 12.328-7.52 3.226-3.053 5.677-6.725 7.357-11.021 1.68-4.295 2.518-8.861 2.518-13.702.004-4.883-.841-9.417-2.546-13.602zm-22.007 25.637c-.457 3.491-1.168 6.454-2.125 8.9-1.09 2.831-2.572 4.98-4.451 6.439-1.87 1.461-4.118 2.192-6.73 2.192-2.88 0-5.256-.786-7.132-2.354-1.875-1.569-3.312-3.707-4.315-6.41a37.006 37.006 0 0 1-2.225-9.387c-.304-3.119-.455-7.051-.455-11.807 0-3.615.171-7.097.522-10.433.351-3.338.979-6.248 1.897-8.733 1.003-2.702 2.428-4.905 4.285-6.606 1.854-1.7 4.325-2.552 7.424-2.552 2.832 0 5.174.784 7.03 2.355 1.854 1.569 3.306 3.729 4.348 6.477.875 2.269 1.526 5.362 1.964 9.287.436 3.922.655 7.413.655 10.462-.005 4.629-.233 8.684-.692 12.17zm-285.821-36.43c-3.312-3.055-7.293-5.417-11.936-7.097-4.646-1.679-10.021-2.519-16.124-2.519-5.844 0-11.128.84-15.862 2.519-4.729 1.679-8.708 4.042-11.934 7.097-3.357 3.183-5.878 6.812-7.557 10.89-1.679 4.079-2.518 8.737-2.518 13.965 0 5.32.957 10.13 2.878 14.425a31.964 31.964 0 0 0 4.801 7.651c-1.376.859-5.98 3.655-8.492 3.988a6.825 6.825 0 0 1-3.499-.622c-1.217-.566-1.697-1.416-2.282-2.549-.587-1.137-.511-2.684-.511-4.646V62.207c0-7.151-2.197-12.666-5.752-16.549-3.553-3.879-8.835-5.818-15.417-5.818-3.005 0-5.937.371-8.572 1.11-2.642.742-4.864 1.659-6.562 2.747-1.527.96-3.236 1.956-5.064 3.549-1.833 1.591-3.406 3.872-4.671 3.872h-.589c-1.396-1.825-3.761-6.163-7.098-8.324-3.335-2.158-7.489-3.095-12.458-3.095-2.806-.005-5.6.371-8.305 1.117-2.531.696-4.605 1.604-6.216 2.649-1.483.916-3.065 2.144-4.741 3.649-1.68 1.503-3.393 2.812-4.614 3.902l-.009-7.971c0-1.741-.832-2.244-2.414-1.956-1.873.354-20.549 3.862-20.931 3.944-.387.084-.674.764-.054 1.564.874 1.132 2.109 2.83 2.109 4.428v58.508h21.298s.032-44.404 0-50.397c.471-.641 1.099-1.633 1.771-2.51a14.162 14.162 0 0 1 2.955-2.871 19.64 19.64 0 0 1 4.033-2.248c1.463-.589 3.138-.915 5.019-.915 2.972 0 5.002 1.11 6.601 3.355 1.597 2.245 2.138 5.6 2.138 10.089v45.495h21.906V58.742c0-.656 1.162-1.44 1.862-2.354.702-.917 1.732-1.833 2.999-2.75a19.869 19.869 0 0 1 4.058-2.19c1.468-.59 3.151-.882 5.032-.882 2.972 0 4.555 1.124 6.151 3.368 1.597 2.245 1.804 5.614 1.804 10.106v32.041c0 5.834 4.243 8.392 6.771 9.981 2.526 1.595 6.819 2.391 12.171 2.391 2.914 0 5.854-.352 8.462-1.049 6.504-1.262 13.342-8.178 13.342-8.178l-.655-1.209c.471.478.95.964 1.453 1.41 3.447 3.051 7.413 5.34 11.884 6.865 4.466 1.528 9.367 2.29 14.689 2.29 6.142 0 11.608-.877 16.386-2.621 4.774-1.741 8.888-4.251 12.329-7.519 3.229-3.053 5.681-6.725 7.363-11.021 1.673-4.296 2.519-8.861 2.519-13.702 0-4.887-.854-9.42-2.551-13.604-1.704-4.188-4.168-7.783-7.396-10.793zm-14.618 36.43c-.459 3.491-1.166 6.454-2.126 8.9-1.09 2.831-2.574 4.98-4.449 6.439-1.874 1.461-4.117 2.192-6.734 2.192-2.879 0-5.252-.786-7.128-2.354-1.878-1.569-3.313-3.707-4.316-6.41a37.147 37.147 0 0 1-2.227-9.387c-.306-3.119-.457-7.051-.457-11.807 0-3.615.174-7.097.521-10.433.35-3.338.983-6.248 1.899-8.733 1.003-2.702 2.433-4.905 4.28-6.606 1.86-1.7 4.331-2.552 7.425-2.552 2.837 0 5.178.784 7.031 2.355 1.854 1.569 3.311 3.729 4.353 6.477.872 2.269 1.524 5.362 1.964 9.287.432 3.922.65 7.413.65 10.462 0 4.629-.228 8.684-.686 12.17z"/><path d="M665.15 62.305c2.051-2.51 3.075-5.417 3.075-8.734 0-3.965-1.231-7.203-3.693-9.712-2.465-2.507-5.726-3.76-9.774-3.76-3.668 0-7.188.991-10.564 2.973-2.087 1.224-3.471 2.773-5.408 4.573-1.485 1.284-3.4 2.415-3.4 3.378v-7.975c0-1.741-1.468-2.246-3.052-1.958-1.871.354-20.854 3.86-21.239 3.942-.386.084-1.427.764-.807 1.565.875 1.132 1.366 2.827 1.366 4.425v24.362c-1.826 2.423-5.627 9.729-7.047 11.869-1.71 2.579-4.86 6.29-8.13 8.538-3.27 2.244-6.83 3.363-10.931 3.363-7.502 0-12.91-2.326-16.354-6.996-3.45-4.664-5.137-11.466-5.137-20.405 0 0 29.832-.017 36.964 0 8.588.018 7.459-8.49 5.573-14.874-1.015-3.421-2.94-6.313-5.429-8.801-2.574-2.616-5.817-4.666-9.74-6.15-3.926-1.478-8.938-2.223-15.047-2.223-5.58 0-10.619.961-15.139 2.879-4.514 1.918-8.253 4.425-11.216 7.522a34.277 34.277 0 0 0-6.964 10.888 33.917 33.917 0 0 0-2.455 12.789c0 4.93.752 9.496 2.255 13.7a29.61 29.61 0 0 0 5.559 9.514c-1.979 1.177-5.271 2.979-7.257 3.242a6.817 6.817 0 0 1-3.499-.626c-1.221-.562-2.322-1.412-2.908-2.548-.59-1.136-1.595-2.683-1.595-4.645V36.51h10.953V25.557h-10.953V0H512.22s2.681 28.898-11.926 28.898v7.611h12.78v25.32s-.614 28.95-.614 34.245c0 .688-.209 1.325-.104 1.925-1.846 1.002-4.172 2.043-5.635 2.238a7.086 7.086 0 0 1-3.567-.626c-1.226-.562-2.167-1.412-2.75-2.549-.588-1.135-.959-2.682-.959-4.644l-.06-30.473c0-6.673-1.636-12.025-5.188-16.057-2.204-2.496-4.854-4.217-8.504-5.167v-.095c-1.828-.354-3.059-.546-4.634-.661-.369-.031-.824-.047-1.204-.064-.382-.013-.765-.064-1.154-.064-.079 0-.17.013-.249.015-.13-.002-.257-.015-.388-.015-2.968 0-6.285.371-8.902 1.11-1.104.312-1.726.66-3.55 1.026v.201c0 .407-1.254.845-1.992 1.323-1.486.917-2.868 2.129-4.545 3.63-1.677 1.503-2.591 2.803-4.415 3.896v-7.975c0-1.741-.789-2.246-2.374-1.958-1.872.354-20.514 3.86-20.898 3.942-.384.084-.113.764.508 1.565.876 1.132 2.686 2.827 2.686 4.425v58.509h20.213s.03-44.405 0-50.398c.471-.641 1.099-1.632 1.767-2.509a14.464 14.464 0 0 1 2.953-2.873 19.78 19.78 0 0 1 4.036-2.247c1.396-.562 2.989-.868 4.765-.894 3.073.054 5.627 1.144 7.229 3.334 1.633 2.245 2.85 5.579 2.85 10.023v32.109c0 5.834 3.33 8.389 5.854 9.982 2.525 1.594 6.357 2.389 11.717 2.389 2.911 0 5.625-.35 8.237-1.046 3.603-.705 7.259-3.14 9.821-5.177 1.412 1.799 3.24 2.972 4.606 3.84 2.526 1.591 6.455 2.387 11.812 2.387 2.913 0 5.679-.352 8.285-1.048 5.27-1.025 10.694-5.757 12.564-7.519 2.78 2.416 6.091 4.418 10.013 5.946 4.69 1.835 10.261 2.75 16.714 2.75 3.882 0 7.313-.423 10.301-1.276a40.16 40.16 0 0 0 8.864-3.763 33.571 33.571 0 0 0 7.353-5.655c2.164-2.203 4.175-5.787 5.046-7.033.429-.625 2.075-2.791 2.075-4.803v23.48h22.502s.032-44.405 0-50.398c.467-.641 1.097-1.632 1.77-2.509a13.926 13.926 0 0 1 2.723-2.683c.182-.134-.367-.318-.187-.442.423-.285.574-.617.574-.872v-.059c3.651-1.202 4.889-1.858 6.818-1.941-.18.737-.01 1.53-.229 2.378-.219.847-.145 2.028-.145 3.548 0 3.129 1.188 5.491 3.394 7.101 2.197 1.606 4.938 2.407 8.123 2.407 3.351.005 6.1-1.248 8.15-3.755zm-97.806-12.197c2.008-3.402 4.687-5.104 8.048-5.104 1.964 0 3.587.525 4.871 1.568 1.285 1.049 2.3 2.599 3.042 4.648.653 1.744 1.112 3.987 1.372 6.735.257 2.674.389 5.358.397 8.044l-20.999.262c.172-7.367 1.264-12.751 3.269-16.153zm-351.368 50.133a6.804 6.804 0 0 1-3.499-.622c-1.22-.566-2.434-1.416-3.02-2.549-.587-1.137-1.247-2.684-1.247-4.646V43.05c0-1.742-.525-2.245-2.111-1.958-1.871.354-20.394 3.86-20.778 3.942-.383.084-.71.764-.087 1.564.873 1.132 1.97 2.828 1.97 4.426 0 .246.151 44.396.151 45.057 0 .313.059.582.08.877-1.972 1.177-5.314 3.017-7.324 3.283a6.792 6.792 0 0 1-3.499-.623c-1.221-.563-1.608-1.415-2.199-2.549-.59-1.138-.887-2.685-.887-4.646V30.846s4.253-4.967 10.359-8.882c-.06.492-.406.982-.406 1.504 0 3.312 1.146 6.137 3.698 8.468 2.548 2.333 5.529 3.501 9.061 3.501 3.485 0 6.476-1.168 9.023-3.501 2.553-2.331 3.809-5.155 3.809-8.468s-.889-6.149-3.422-8.505c-1.997-1.86-4.744-2.954-6.567-3.348v-1.194c-12.779 0-25.558 10.703-25.558 10.703V.003h-22.346s2.27 28.898-12.335 28.898v7.611h10.954v25.324s.503 28.951.503 34.244c0 .523.35.99.41 1.463-1.977 1.121-4.477 2.473-6.173 2.699a6.505 6.505 0 0 1-3.43-.623c-1.22-.564-2.372-1.415-2.958-2.546a9.94 9.94 0 0 1-1.13-4.646V61.553c0-4.664.074-8.447-1.517-11.348-1.593-2.898-3.601-5.11-6.304-6.642-2.833-1.569-5.945-2.603-9.478-3.102-3.532-.503-7.376-.757-11.606-.757-3.052 0-6.349.359-9.926 1.079-3.574.719-6.729 1.734-9.476 3.042-2.791 1.267-5.15 2.866-7.09 4.806-1.94 1.942-2.908 4.131-2.908 6.574 0 2.835.939 5.132 2.821 6.901 1.881 1.771 4.657 2.649 8.33 2.649 2.581 0 4.493-.237 5.741-.72a11.317 11.317 0 0 0 3.381-2.029c.743-.653 1.31-1.536 1.703-2.647.393-1.111.59-2.04.59-2.779 0-1.661-.306-3.382-.917-5.17-.609-1.788-.985-3.116-1.114-3.991.784-.566 1.821-1.12 3.104-1.667 1.289-.547 2.892-.819 4.813-.819 2.136 0 3.858.479 5.166 1.438s2.271 2.139 2.877 3.534c.569 1.219 1.117 2.724 1.292 4.511.171 1.788.437 3.229.437 4.319v6.283c-1.826 1.219-6.731 2.605-12.231 4.155-5.502 1.555-10.306 3.049-14.235 4.486a51.361 51.361 0 0 0-5.711 2.554 17.467 17.467 0 0 0-4.577 3.471 16.314 16.314 0 0 0-3.349 5.277c-.788 1.983-1.184 4.398-1.184 7.233 0 4.937 1.79 8.899 5.365 11.894 3.585 2.987 7.908 4.488 12.974 4.488 3.405 0 6.059-.243 7.959-.725a33.074 33.074 0 0 0 5.928-2.159c1.57-.74 3.046-1.046 4.42-2.089 1.374-1.053 2.806-3.205 4.292-3.205h.39c.913 1.822 2.631 4.648 5.155 6.244 2.527 1.594 6.461 2.091 11.816 2.091 2.916 0 5.678-.497 8.289-1.193 3.869-.758 7.816-3.575 10.386-5.684 1.441 2.053 3.469 3.305 4.944 4.23 2.526 1.591 6.464 2.369 11.819 2.369 2.917 0 5.675-.358 8.288-1.057 4.155-.808 8.404-3.923 10.934-6.065 1.257 2.332 3.238 3.717 4.826 4.719 2.527 1.592 6.46 2.388 11.818 2.388 2.911 0 5.676-.351 8.284-1.05 6.501-1.268 13.255-8.181 13.255-8.181l-1.889-3.243c-.003.015-5.959 3.88-8.927 4.275zm-99.653-6.977a17.184 17.184 0 0 1-4.106 3.641c-1.554.982-3.535 1.474-5.937 1.474-2.279 0-4.193-.765-5.748-2.293-1.552-1.526-2.328-3.999-2.328-7.405 0-2.58.456-4.82 1.381-6.723a12.701 12.701 0 0 1 3.806-4.689c1.529-1.18 3.501-2.302 5.904-3.376a85.406 85.406 0 0 1 7.291-2.853l-.263 22.224zM42.569 39.838c-3.44 0-6.938.809-10.441 2.421-3.506 1.613-6.469 3.949-10.119 6.869v-7.455c0-1.741-.806-2.245-2.391-1.958-1.872.354-20.537 3.859-20.922 3.94-.383.085-.053.766.567 1.565.876 1.131 2.662 2.826 2.662 4.424v81.796h20.081v-28.021c1.825 1.224 4.464 2.644 7.078 3.493 2.613.85 5.99 1.273 10.17 1.273 9.408 0 17.171-3.291 23.312-9.875 6.142-6.582 9.205-14.479 9.205-23.681 0-10.42-2.615-18.822-7.841-25.215-5.224-6.381-12.346-9.576-21.361-9.576zm1.836 55.498c-2.586 4.643-6.035 6.967-10.339 6.967-1.655 0-3.176-.283-4.567-.848a10.378 10.378 0 0 1-3.72-2.621c-.738-.826-1.502-1.935-2.244-3.306-.738-1.372-1.526-2.497-1.526-3.371V55.079c1.825-1.569 2.765-2.848 4.46-3.826 1.698-.982 3.973-1.474 6.798-1.474 2.78 0 5.149.699 7.084 2.095 1.936 1.395 3.494 3.271 4.671 5.625 1.217 2.354 2.067 5.029 2.547 8.012.475 2.989.716 6.115.716 9.39.001 8.98-1.292 15.79-3.88 20.435z"/></g></svg>