<svg xmlns="http://www.w3.org/2000/svg" width="77" height="77"><path d="M36.682 39.577a2.953 2.953 0 0 0-.882 1.086c-.213.439-.319.958-.319 1.556 0 .789.18 1.361.54 1.715.359.354.803.531 1.33.531.557 0 1.017-.114 1.376-.341.359-.228.676-.509.95-.843l.061-5.147c-.567.192-1.13.413-1.688.661-.558.248-1.014.509-1.368.782z"/><path d="M38.499 1C17.79 1 1 17.789 1 38.499 1 59.21 17.79 76 38.499 76 59.21 76 76 59.21 76 38.499 76 17.789 59.21 1 38.499 1zM27.074 44.531c-1.441 1.545-3.266 2.318-5.474 2.318-.981 0-1.778-.1-2.391-.299-.613-.199-1.271-.533-1.67-.819v6.568h-5.035v-19.19c0-.375-.249-.773-.454-1.039-.146-.188-.052-.348.039-.367.09-.019 4.474-.842 4.913-.926.372-.066.567.052.567.46v1.75c.674-.685 1.546-1.233 2.369-1.611.823-.379 1.638-.569 2.445-.569 2.115 0 3.787.75 5.014 2.25 1.226 1.499 1.84 3.472 1.84 5.917-.001 2.159-.721 4.012-2.163 5.557zm35.435 2.134a7.49 7.49 0 0 1-1.945.246c-1.257 0-2.18-.187-2.774-.56-.372-.235-.837-.56-1.132-1.108-.595.503-1.59 1.233-2.566 1.423a7.495 7.495 0 0 1-1.945.246c-1.257 0-2.182-.187-2.773-.56-.346-.219-.822-.52-1.161-1.002-.604.494-1.53 1.139-2.438 1.316a7.492 7.492 0 0 1-1.946.246c-1.256 0-2.179-.187-2.773-.56a2.802 2.802 0 0 1-1.209-1.604h-.092c-.349.348-.685.644-1.007.891a5.823 5.823 0 0 1-1.038.629 7.86 7.86 0 0 1-1.393.507c-.445.112-1.067.168-1.867.168-1.189 0-2.204-.352-3.045-1.053-.839-.703-1.26-1.632-1.26-2.791 0-.667.092-1.232.277-1.698a3.85 3.85 0 0 1 .784-1.239 4.076 4.076 0 0 1 1.069-.814c.405-.215.849-.415 1.331-.6a46.851 46.851 0 0 1 3.32-1.053c1.292-.364 2.235-.689 2.83-.976v-1.474c0-.256-.021-.594-.062-1.014-.042-.419-.128-.773-.261-1.059-.143-.327-.369-.604-.676-.829s-.711-.337-1.212-.337c-.451 0-.828.064-1.129.192a3.77 3.77 0 0 0-.729.391c.031.205.118.517.261.937.144.42.216.824.216 1.213 0 .174-.046.392-.139.652a1.45 1.45 0 0 1-.399.622 2.647 2.647 0 0 1-.793.476c-.293.113-.742.169-1.348.169-.861 0-1.514-.207-1.955-.622-.441-.415-.662-.954-.662-1.62 0-.573.228-1.087.684-1.543a5.59 5.59 0 0 1 1.665-1.128c.645-.308 1.387-.545 2.226-.714a11.943 11.943 0 0 1 2.333-.253c.993 0 1.903.06 2.733.177.828.118 1.576.36 2.241.729a3.903 3.903 0 0 1 1.512 1.559c.373.681.421 1.568.421 2.663v7.246c0 .46.07.824.208 1.089.138.267.351.466.638.599.173.082.443.174.82.146.398-.053 1.019-.37 1.482-.633-.014-.111-.03-.22-.03-.344 0-1.243.013-8.037.013-8.037v-6.057H45.05v-1.673c3.318 0 2.825-6.477 2.825-6.477h4.973v4.651s3.354-2.512 6.092-2.512v.281a2.98 2.98 0 0 1 1.629.785c.594.553.891 1.218.891 1.996s-.299 1.441-.899 1.988a3.045 3.045 0 0 1-2.125.821c-.829 0-1.544-.273-2.142-.821-.6-.547-.899-1.21-.899-1.988 0-.122.021-.236.036-.353-1.434.919-2.552 2.085-2.552 2.085v14.453c0 .46.191.824.33 1.089.138.267.35.466.636.599.174.082.443.174.822.146.472-.063 1.257-.495 1.72-.77-.005-.07-.017-.133-.017-.207l-.031-10.575c0-.375-.249-.773-.453-1.039-.146-.188-.052-.348.039-.367.09-.019 4.474-.842 4.913-.925.372-.067.567.051.567.46V43.15c0 .46.083.824.221 1.089.138.267.351.466.638.599.173.082.443.174.821.146.696-.093 2.093-1 2.093-1l.443.76c-.002 0-1.586 1.624-3.112 1.921z"/><path d="M23.166 34.999a3.493 3.493 0 0 0-1.081-1.302c-.449-.323-.995-.485-1.64-.485-.654 0-1.178.114-1.571.341a3.645 3.645 0 0 0-1.027.886v8.588c.061.202.177.462.348.78.171.317.342.573.514.764.251.273.539.475.861.606.323.131.675.197 1.058.197.997 0 1.796-.539 2.395-1.614.599-1.075.899-2.653.899-4.733 0-.758-.056-1.482-.166-2.174a6.13 6.13 0 0 0-.59-1.854z"/></svg>